<svg width="31" height="50" viewBox="0 0 31 50" fill="none" xmlns="http://www.w3.org/2000/svg">
<path d="M30.1435 11.4735C29.7642 10.625 28.6992 10.011 27.8796 10.45C28.1547 9.63598 28.2428 8.90369 28.1584 8.20889C28.1318 7.2516 27.8635 6.30003 27.3628 5.48284C26.5672 4.18388 25.2078 3.15731 24.9499 1.65679C24.4794 2.06408 24.1517 2.63283 24.0345 3.24377C23.6223 2.89273 23.4931 2.29429 23.5723 1.75835C23.652 1.22293 23.9089 0.732303 24.1611 0.253134C23.3926 0.63699 22.4792 0.496364 21.6299 0.370322C19.55 0.0619875 17.4378 -0.105721 15.3428 0.073446C13.2477 0.252613 11.1631 0.788553 9.33171 1.82085C8.76744 2.13856 8.23027 2.50158 7.69361 2.86408C7.38621 3.0719 7.0788 3.27971 6.7714 3.487C6.74118 3.50731 6.71096 3.52919 6.68022 3.55002C6.43273 3.74898 6.18681 3.95002 5.94454 4.15523C5.90181 4.20107 5.857 4.24586 5.81845 4.29482C5.69497 4.38284 5.57826 4.47919 5.45686 4.57034C5.02858 4.94586 4.60655 5.32815 4.19702 5.72399C3.91463 5.99691 3.63484 6.27712 3.42122 6.6068C3.02889 7.21254 2.88457 7.95629 2.92364 8.67712C2.92833 8.76723 2.93563 8.86098 2.9028 8.94483C2.82934 9.1339 2.59904 9.19379 2.40939 9.26619C1.65443 9.55577 1.23136 10.3709 1.0615 11.1615C1.00732 11.412 0.973451 11.6667 0.942711 11.9219C0.957821 12.3433 0.984392 12.7579 1.00836 13.1454C1.08443 14.3766 1.38454 15.5772 1.43873 16.8032C1.56064 19.5855 1.5471 25.3678 1.82897 25.8887C2.21245 22.2074 2.22339 16.4001 3.64995 13.0011C4.02717 12.1021 4.64146 11.1485 5.60639 11.0068C5.78094 10.9813 5.95392 10.9724 6.1269 10.9636C6.10658 10.9495 6.09094 10.9297 6.0701 10.9172C5.57565 10.6172 4.92594 10.6792 4.40648 10.9344C3.88702 11.1896 3.47228 11.6126 3.07682 12.0344C3.31024 11.5037 3.60462 10.9839 4.04697 10.6094C4.48932 10.2349 5.1036 10.025 5.66214 10.1797C6.03988 10.2849 6.3551 10.5402 6.65782 10.7896C6.34937 10.0516 6.03467 9.27869 6.09615 8.48129C6.14565 7.84118 6.43638 7.24274 6.7912 6.70785C6.42805 7.78337 6.58175 9.0214 7.1976 9.97505C7.59931 10.5974 8.1938 11.087 8.87113 11.3855C9.08839 11.4542 9.30462 11.5277 9.52084 11.6058C9.68132 11.6443 9.84388 11.6751 10.0085 11.6917C8.75598 10.8933 8.14742 9.28911 8.33656 7.8167C8.52569 6.3443 9.42237 5.02294 10.5863 4.10054C11.7503 3.17815 13.1644 2.62033 14.6013 2.24533C14.2929 2.32606 13.8401 2.82502 13.5395 2.99794C13.2071 3.18908 12.8627 3.27815 12.5271 3.44221C11.7498 3.82242 10.9688 4.51565 10.4457 5.19742C9.61932 6.27347 9.28742 7.70993 9.5396 9.04275C9.67663 9.76775 9.98455 10.4563 10.4196 11.0516C10.7927 11.562 11.259 11.9172 11.7347 12.3209C11.843 12.4131 11.9514 12.5047 12.0681 12.5865C12.3 12.749 12.5542 12.8631 12.8106 12.9777C12.9533 13.0412 13.0956 13.1058 13.2389 13.1678C13.3561 13.2183 13.5499 13.2579 13.6468 13.3381C13.0523 12.8443 12.5746 12.3381 12.3917 11.5573C12.202 10.7464 12.1546 9.94171 11.8191 9.16567C12.0989 9.36254 12.3213 9.63963 12.4532 9.95473C12.599 10.3032 12.6334 10.687 12.7236 11.0542C13.0497 12.3787 14.1793 13.4709 15.5147 13.7527C15.0937 13.4818 14.656 13.1938 14.4117 12.7568C13.8792 11.8058 14.1626 10.2844 14.8676 9.48182C15.3063 8.98233 15.7648 8.5339 16.339 8.19327C16.8985 7.8615 17.4581 7.52972 18.0177 7.19847C18.2975 7.03285 18.5773 6.8667 18.8571 6.70108C18.9837 6.62608 19.4771 6.4667 19.5453 6.34222C19.4495 6.51618 19.3343 6.67347 19.2108 6.82399C18.4903 7.69952 17.3638 8.22973 16.5442 9.04692C15.6903 9.89848 15.1854 11.0907 15.1677 12.2964C15.163 12.5995 15.1906 12.912 15.324 13.1844C15.4574 13.4568 15.7142 13.6844 16.0164 13.7131C16.1978 12.5042 16.7193 11.3032 17.6707 10.5355C18.3913 9.95421 19.2978 9.66254 20.1914 9.41931C21.0844 9.17608 22.0009 8.96358 22.8054 8.50577C23.044 8.36983 23.2707 8.20525 23.478 8.02035C23.5119 7.99014 23.5463 7.95993 23.5791 7.92816C23.6192 7.88962 23.6578 7.85056 23.6958 7.81045C23.7323 7.77191 23.7672 7.73233 23.8016 7.69275C23.8334 7.65577 23.8657 7.61931 23.8959 7.58129C23.9558 7.50525 24.0121 7.42712 24.0637 7.34639C24.0798 7.32087 24.0934 7.29431 24.1085 7.26827C24.1465 7.2042 24.1824 7.1391 24.2147 7.07243C24.2309 7.03962 24.245 7.00629 24.2596 6.97295C24.2882 6.90733 24.3132 6.84066 24.3356 6.77243C24.346 6.74118 24.357 6.71045 24.3658 6.67868C24.394 6.57972 24.4179 6.47868 24.4325 6.37503C24.4523 6.51826 24.4539 6.65993 24.4471 6.80056C24.4456 6.82764 24.4461 6.85524 24.4435 6.88181C24.4331 7.00629 24.4107 7.12868 24.3815 7.25004C24.37 7.29639 24.3575 7.34274 24.3434 7.3891C24.3153 7.48233 24.2814 7.574 24.2434 7.66462C24.2095 7.74431 24.1715 7.82243 24.1309 7.89952C24.1131 7.93389 24.0939 7.96723 24.0746 8.00108C23.9928 8.14275 23.9021 8.28077 23.8005 8.41254C23.4613 8.8516 23.0252 9.23234 22.5516 9.51098C21.4377 10.1678 20.145 10.4469 18.9623 10.9709C17.8135 11.4797 16.7005 12.337 16.3926 13.5459C16.3838 13.5797 16.3624 13.6084 16.3551 13.6428C16.4406 13.649 16.562 13.5808 16.6516 13.5584C16.7605 13.5313 16.872 13.5136 16.9835 13.5011C17.2424 13.473 17.5227 13.4527 17.7801 13.4964C18.1349 13.5568 18.4762 13.7011 18.757 13.9271C19.29 14.3558 19.5834 15.0048 19.9408 15.5881C20.2982 16.1709 20.8026 16.7459 21.4799 16.8397C20.4191 16.0954 20.4967 14.4058 19.5365 13.5355C19.2671 13.2912 18.9331 13.1303 18.5981 12.9881C18.5512 12.9683 18.5033 12.9495 18.4554 12.9303C18.6346 12.8698 18.8169 12.8068 18.9842 12.7537C20.3951 12.3047 22.0827 11.8959 23.5603 11.5948C24.1074 11.4948 25.3714 11.7448 25.9034 11.8839C26.2592 11.9771 26.7391 11.8787 26.7391 11.8787C26.4083 12.2589 26.3989 12.8339 26.5604 13.311C26.7219 13.7881 27.0267 14.2011 27.2836 14.6344C29.2431 17.9402 28.3293 22.1225 28.7977 25.9366C28.8201 25.7616 28.8763 25.5866 28.8988 25.411C29.375 21.6803 29.8178 17.949 30.294 14.2183C30.4123 13.2985 30.5228 12.3219 30.1435 11.4735Z" fill="url(#paint0_linear_377_3)"/>
<path d="M26.7042 21.3412C26.0607 20.7668 25.2849 20.3418 24.4544 20.1084C23.4176 19.8173 22.3214 19.8261 21.2465 19.8975C20.1221 19.972 19.0019 20.1126 17.8937 20.3178C16.5687 20.5636 18.3366 21.5819 18.906 21.6329C19.5021 21.686 20.0971 21.5334 20.665 21.3454C21.2329 21.1574 21.793 20.9314 22.3828 20.8308C23.9417 20.5647 25.5183 21.2011 26.8652 22.0293C26.9783 21.9522 27.0022 21.7876 26.9553 21.6595C26.9079 21.5319 26.8058 21.4324 26.7042 21.3412Z" fill="url(#paint1_linear_377_3)"/>
<path d="M8.48244 20.8314C9.07224 20.9319 9.63234 21.1579 10.2003 21.3459C10.7682 21.534 11.3632 21.6871 11.9592 21.6334C12.5287 21.5824 14.2965 20.5642 12.9716 20.3183C11.8634 20.1131 10.7432 19.9725 9.61827 19.898C8.54392 19.8267 7.44717 19.8178 6.41033 20.109C5.57982 20.3423 4.80402 20.7673 4.16055 21.3418C4.05843 21.4329 3.95683 21.5324 3.90942 21.6605C3.86201 21.7886 3.88649 21.9532 3.99956 22.0303C5.34692 21.2017 6.92354 20.5652 8.48244 20.8314Z" fill="url(#paint2_linear_377_3)"/>
<path d="M22.6345 38.9033C22.7241 38.4923 22.76 38.0939 22.7064 37.809C22.6063 37.2772 22.5339 37.1028 22.3745 36.685C22.1041 36.1574 21.6956 35.6955 21.211 35.3428C20.579 34.8835 19.8293 34.6048 19.0587 34.4486C18.0083 34.308 16.8412 34.3309 15.7268 34.271C15.6126 34.2647 15.4959 34.2616 15.3834 34.2533C15.385 34.2486 15.3084 34.2434 15.2698 34.2465C15.2693 34.2465 15.2683 34.2465 15.2677 34.2465C15.2672 34.2465 15.2662 34.2465 15.2656 34.2465C15.2271 34.2434 15.1505 34.2486 15.1521 34.2533C15.0395 34.2616 14.9228 34.2642 14.8087 34.2704C13.6942 34.3303 12.5271 34.308 11.4768 34.4486C10.7062 34.6048 9.95642 34.883 9.32442 35.3428C8.83986 35.6955 8.43086 36.1574 8.16097 36.685C8.00154 37.1028 7.92912 37.2772 7.82908 37.809C7.78114 38.0637 7.80459 38.4106 7.87389 38.7752C7.71028 39.597 7.4852 41.9898 7.30232 43.2955C7.25231 43.6543 7.20177 44.0184 7.24866 44.3778C7.27471 44.5773 7.32942 44.771 7.38412 44.9653C7.44873 45.0637 7.50761 45.1502 7.5571 45.2163C7.96767 45.7663 8.40168 46.3278 8.83986 46.8533C10.0919 48.3559 12.1077 49.2252 12.9544 49.57C13.5249 49.8023 14.0647 49.9002 14.5451 49.9486C14.5456 49.9726 14.916 50.0007 15.1323 49.9903C15.1651 49.9919 15.2042 49.9919 15.2427 49.9913C15.2813 49.9913 15.3204 49.9919 15.3532 49.9903C15.5694 50.0007 15.9399 49.9726 15.9404 49.9486C16.4208 49.9002 16.9611 49.8018 17.5311 49.57C18.3777 49.2252 20.3941 48.3559 21.6456 46.8533C22.0838 46.3273 22.5178 45.7663 22.9283 45.2163C22.9778 45.1497 23.0367 45.0632 23.1013 44.9653C23.156 44.7715 23.2107 44.5773 23.2368 44.3778C23.2837 44.0184 23.2331 43.6543 23.1831 43.2955C23.0086 42.0496 22.796 39.8199 22.6345 38.9033ZM22.2489 41.097C22.2448 41.2054 22.2338 41.3137 22.189 41.4116C22.1478 41.5012 22.0812 41.5767 22.015 41.6502C21.4643 42.2648 20.9047 42.8882 20.2076 43.3309C19.9033 43.5241 19.5313 43.6845 19.1905 43.5668C19.029 43.5111 18.8946 43.3981 18.7643 43.2877L16.8668 41.6799C16.762 41.5908 16.7136 41.4559 16.7276 41.3189C16.7521 41.0835 16.7537 40.846 16.7328 40.6101C16.7146 40.4048 16.8626 40.2257 17.0647 40.1845C17.3122 40.134 17.5555 40.0621 17.8124 40.0569C17.8734 40.0559 17.9453 40.0486 17.976 39.996C18.0364 39.8929 17.8744 39.8059 17.7556 39.7944C17.0533 39.7257 16.3801 39.8106 15.6773 39.7601C15.559 39.7517 15.3933 39.7496 15.2417 39.7522C15.0901 39.7496 14.9239 39.7517 14.8061 39.7601C14.1038 39.8106 13.4306 39.7252 12.7277 39.7944C12.6084 39.8059 12.4464 39.8929 12.5073 39.996C12.5381 40.0486 12.61 40.0559 12.6709 40.0569C12.9278 40.0621 13.1711 40.134 13.4186 40.1845C13.6208 40.2257 13.7687 40.4043 13.7505 40.6101C13.7297 40.846 13.7312 41.0835 13.7557 41.3189C13.7698 41.4559 13.7219 41.5908 13.6166 41.6799L11.719 43.2877C11.5888 43.3981 11.4544 43.5111 11.2928 43.5668C10.9521 43.6845 10.5801 43.5241 10.2758 43.3309C9.5792 42.8882 9.0191 42.2653 8.46837 41.6502C8.40272 41.5767 8.33551 41.5017 8.29435 41.4116C8.24954 41.3137 8.2386 41.2054 8.23444 41.097C8.21828 40.683 8.21411 40.2684 8.20421 39.8538C8.21463 39.8778 8.22453 39.9038 8.23548 39.9278C8.16566 39.3444 8.38605 38.7241 8.72263 38.2272C9.11601 37.6475 9.79021 37.2679 10.4952 37.2132C10.5191 37.2069 10.876 37.2319 11.0334 37.2439C13.3905 37.4179 14.1032 37.0663 15.1437 36.0095C15.1437 36.0095 15.1442 36.0085 15.2662 35.847C15.3881 36.0085 15.3886 36.0095 15.3886 36.0095C16.4291 37.0663 17.1419 37.4179 19.499 37.2439C19.6563 37.2324 20.0132 37.2074 20.0372 37.2132C20.7421 37.2679 21.4163 37.6475 21.8097 38.2272C22.0593 38.5955 22.2437 39.0314 22.2948 39.4699C22.2838 39.6507 22.2797 39.7944 22.2786 39.8335C22.2698 40.2548 22.2656 40.6762 22.2489 41.097Z" fill="url(#paint3_linear_377_3)"/>
<defs>
<linearGradient id="paint0_linear_377_3" x1="0.942711" y1="0" x2="30.4057" y2="0" gradientUnits="userSpaceOnUse">
<stop stop-color="#8F5E25"/>
<stop offset="0.5" stop-color="#FBF4A1"/>
<stop offset="1" stop-color="#8F5E25"/>
</linearGradient>
<linearGradient id="paint1_linear_377_3" x1="17.412" y1="19.8557" x2="26.978" y2="19.8557" gradientUnits="userSpaceOnUse">
<stop stop-color="#8F5E25"/>
<stop offset="0.5" stop-color="#FBF4A1"/>
<stop offset="1" stop-color="#8F5E25"/>
</linearGradient>
<linearGradient id="paint2_linear_377_3" x1="3.88654" y1="19.8562" x2="13.4533" y2="19.8562" gradientUnits="userSpaceOnUse">
<stop stop-color="#8F5E25"/>
<stop offset="0.5" stop-color="#FBF4A1"/>
<stop offset="1" stop-color="#8F5E25"/>
</linearGradient>
<linearGradient id="paint3_linear_377_3" x1="7.23003" y1="34.2455" x2="23.2554" y2="34.2455" gradientUnits="userSpaceOnUse">
<stop stop-color="#8F5E25"/>
<stop offset="0.5" stop-color="#FBF4A1"/>
<stop offset="1" stop-color="#8F5E25"/>
</linearGradient>
</defs>
</svg>
