<svg width="51" height="51" viewBox="0 0 51 51" fill="none" xmlns="http://www.w3.org/2000/svg">
<g clip-path="url(#clip0_43_232)">
<path fill-rule="evenodd" clip-rule="evenodd" d="M38.25 8.5C38.25 7.93641 38.0261 7.39591 37.6276 6.9974C37.2291 6.59888 36.6886 6.375 36.125 6.375C35.5614 6.375 35.0209 6.59888 34.6224 6.9974C34.2239 7.39591 34 7.93641 34 8.5V10.625H8.5C7.93641 10.625 7.39591 10.8489 6.9974 11.2474C6.59888 11.6459 6.375 12.1864 6.375 12.75C6.375 13.3136 6.59888 13.8541 6.9974 14.2526C7.39591 14.6511 7.93641 14.875 8.5 14.875H34V17C34 17.5636 34.2239 18.1041 34.6224 18.5026C35.0209 18.9011 35.5614 19.125 36.125 19.125C36.6886 19.125 37.2291 18.9011 37.6276 18.5026C38.0261 18.1041 38.25 17.5636 38.25 17V14.875H42.5C43.0636 14.875 43.6041 14.6511 44.0026 14.2526C44.4011 13.8541 44.625 13.3136 44.625 12.75C44.625 12.1864 44.4011 11.6459 44.0026 11.2474C43.6041 10.8489 43.0636 10.625 42.5 10.625H38.25V8.5ZM8.5 23.375C7.93641 23.375 7.39591 23.5989 6.9974 23.9974C6.59888 24.3959 6.375 24.9364 6.375 25.5C6.375 26.0636 6.59888 26.6041 6.9974 27.0026C7.39591 27.4011 7.93641 27.625 8.5 27.625H12.75V29.75C12.75 30.3136 12.9739 30.8541 13.3724 31.2526C13.7709 31.6511 14.3114 31.875 14.875 31.875C15.4386 31.875 15.9791 31.6511 16.3776 31.2526C16.7761 30.8541 17 30.3136 17 29.75V27.625H42.5C43.0636 27.625 43.6041 27.4011 44.0026 27.0026C44.4011 26.6041 44.625 26.0636 44.625 25.5C44.625 24.9364 44.4011 24.3959 44.0026 23.9974C43.6041 23.5989 43.0636 23.375 42.5 23.375H17V21.25C17 20.6864 16.7761 20.1459 16.3776 19.7474C15.9791 19.3489 15.4386 19.125 14.875 19.125C14.3114 19.125 13.7709 19.3489 13.3724 19.7474C12.9739 20.1459 12.75 20.6864 12.75 21.25V23.375H8.5ZM6.375 38.25C6.375 37.6864 6.59888 37.1459 6.9974 36.7474C7.39591 36.3489 7.93641 36.125 8.5 36.125H34V34C34 33.4364 34.2239 32.8959 34.6224 32.4974C35.0209 32.0989 35.5614 31.875 36.125 31.875C36.6886 31.875 37.2291 32.0989 37.6276 32.4974C38.0261 32.8959 38.25 33.4364 38.25 34V36.125H42.5C43.0636 36.125 43.6041 36.3489 44.0026 36.7474C44.4011 37.1459 44.625 37.6864 44.625 38.25C44.625 38.8136 44.4011 39.3541 44.0026 39.7526C43.6041 40.1511 43.0636 40.375 42.5 40.375H38.25V42.5C38.25 43.0636 38.0261 43.6041 37.6276 44.0026C37.2291 44.4011 36.6886 44.625 36.125 44.625C35.5614 44.625 35.0209 44.4011 34.6224 44.0026C34.2239 43.6041 34 43.0636 34 42.5V40.375H8.5C7.93641 40.375 7.39591 40.1511 6.9974 39.7526C6.59888 39.3541 6.375 38.8136 6.375 38.25Z" fill="black"/>
</g>
<defs>
<clipPath id="clip0_43_232">
<rect width="51" height="51" fill="white"/>
</clipPath>
</defs>
</svg>
