<svg width="173" height="83" viewBox="0 0 173 83" fill="none" xmlns="http://www.w3.org/2000/svg">
<path d="M86.9616 49H81.9816V7.6H71.6016V7H97.4016V7.6H86.9616V49Z" fill="black"/>
<path d="M39.1382 7.48C43.7782 7.16 47.8782 7 51.4382 7C61.3182 7 66.2582 10.3 66.2582 16.9C66.2582 19.7 65.5782 22.2 64.2182 24.4C62.8582 26.6 60.5182 28.06 57.1982 28.78L69.1982 49H63.6182L51.8582 29.14H44.1182V83H39.1382V7.48ZM51.4382 7.6C49.1182 7.6 46.6782 7.74 44.1182 8.02V28.54H52.9982C58.6382 28.3 61.4582 24.46 61.4582 17.02C61.4582 13.98 60.6182 11.66 58.9382 10.06C57.2582 8.42 54.7582 7.6 51.4382 7.6Z" fill="black"/>
<path d="M0.72 49.0002H0L17.94 7.0002L18.6 6.7002L33.72 49.0002H28.62L23.94 35.8002H6.42L0.72 49.0002ZM16.08 13.4802L6.66 35.2002H23.76L16.08 13.4802Z" fill="black"/>
<path d="M172.211 72.3V73H166.219V72.3L167.759 72.16C168.057 72.1227 168.235 72.048 168.291 71.936C168.347 71.824 168.375 71.4413 168.375 70.788V63.872C168.375 62.4347 168.132 61.436 167.647 60.876C167.161 60.316 166.471 60.036 165.575 60.036C164.865 60.036 164.119 60.2133 163.335 60.568C162.551 60.9227 161.757 61.5947 160.955 62.584V70.788C160.955 71.4413 160.983 71.824 161.039 71.936C161.095 72.048 161.272 72.1227 161.571 72.16L163.111 72.3V73H157.119V72.3L158.659 72.16C158.957 72.1227 159.135 72.048 159.191 71.936C159.247 71.824 159.275 71.4413 159.275 70.788V61.576C159.275 60.9227 159.247 60.54 159.191 60.428C159.135 60.2973 158.957 60.2227 158.659 60.204L157.119 60.064V59.364H160.843V61.548C161.608 60.6707 162.411 60.0453 163.251 59.672C164.109 59.28 164.968 59.084 165.827 59.084C167.208 59.084 168.253 59.504 168.963 60.344C169.691 61.1653 170.055 62.332 170.055 63.844V70.788C170.055 71.4413 170.083 71.824 170.139 71.936C170.195 72.048 170.372 72.1227 170.671 72.16L172.211 72.3Z" fill="black"/>
<path d="M153.991 65.888V66.448C153.991 68.52 153.478 70.1813 152.451 71.432C151.443 72.664 150.015 73.28 148.167 73.28C146.3 73.28 144.863 72.664 143.855 71.432C142.847 70.1813 142.343 68.52 142.343 66.448V65.888C142.343 63.8347 142.847 62.192 143.855 60.96C144.863 59.7093 146.3 59.084 148.167 59.084C150.034 59.084 151.471 59.7093 152.479 60.96C153.487 62.192 153.991 63.8347 153.991 65.888ZM152.087 65.328C152.087 63.3867 151.751 62.0053 151.079 61.184C150.407 60.344 149.436 59.924 148.167 59.924C146.916 59.924 145.946 60.344 145.255 61.184C144.583 62.0053 144.247 63.3867 144.247 65.328V67.008C144.247 68.9307 144.583 70.3213 145.255 71.18C145.946 72.02 146.916 72.44 148.167 72.44C149.436 72.44 150.407 72.02 151.079 71.18C151.751 70.3213 152.087 68.9307 152.087 67.008V65.328Z" fill="black"/>
<path d="M136.352 55.7238C135.998 55.7238 135.699 55.6024 135.456 55.3598C135.214 55.1171 135.092 54.8091 135.092 54.4358C135.092 54.0624 135.214 53.7638 135.456 53.5398C135.699 53.2971 135.998 53.1758 136.352 53.1758C136.726 53.1758 137.034 53.2971 137.276 53.5398C137.519 53.7638 137.64 54.0624 137.64 54.4358C137.64 54.8091 137.519 55.1171 137.276 55.3598C137.034 55.6024 136.726 55.7238 136.352 55.7238ZM133.384 60.0638V59.3638H137.22V70.7878C137.22 71.4411 137.248 71.8238 137.304 71.9358C137.36 72.0478 137.538 72.1224 137.836 72.1598L139.376 72.2998V72.9998H133.384V72.2998L134.924 72.1598C135.223 72.1224 135.4 72.0478 135.456 71.9358C135.512 71.8238 135.54 71.4411 135.54 70.7878V61.5758C135.54 60.9224 135.512 60.5398 135.456 60.4278C135.4 60.2971 135.223 60.2224 134.924 60.2038L133.384 60.0638Z" fill="black"/>
<path d="M131.457 70.1438C131.158 71.2078 130.738 72.0011 130.197 72.5238C129.674 73.0278 128.956 73.2798 128.041 73.2798C127.201 73.2798 126.52 73.0931 125.997 72.7198C125.493 72.3278 125.12 71.8331 124.877 71.2358C124.653 70.6384 124.541 70.0224 124.541 69.3878V61.5758C124.541 60.9224 124.513 60.5398 124.457 60.4278C124.42 60.2971 124.242 60.2224 123.925 60.2038L122.385 60.0638V59.3638H124.541V55.3878L126.221 55.0518V59.3638H130.841V60.2038H126.221V69.3878C126.221 70.5451 126.389 71.3478 126.725 71.7958C127.061 72.2251 127.528 72.4398 128.125 72.4398C128.722 72.4398 129.17 72.2251 129.469 71.7958C129.768 71.3664 129.992 70.7038 130.141 69.8078L131.457 70.1438Z" fill="black"/>
<path d="M114.966 59.924C113.828 59.924 112.932 60.344 112.278 61.184C111.644 62.0053 111.326 63.3867 111.326 65.328V67.008C111.326 68.9307 111.625 70.3213 112.222 71.18C112.838 72.02 113.846 72.44 115.246 72.44C116.142 72.44 116.861 72.2253 117.402 71.796C117.962 71.3667 118.364 70.6107 118.606 69.528L119.894 69.892C119.558 71.1427 118.933 72.02 118.018 72.524C117.122 73.028 116.152 73.28 115.106 73.28C113.202 73.28 111.774 72.664 110.822 71.432C109.889 70.1813 109.422 68.52 109.422 66.448V65.888C109.422 63.8347 109.889 62.192 110.822 60.96C111.774 59.7093 113.156 59.084 114.966 59.084C116.086 59.084 117.02 59.308 117.766 59.756C118.532 60.1853 119.082 60.7827 119.418 61.548C119.754 62.2947 119.848 63.144 119.698 64.096L118.102 64.348C118.308 62.9107 118.14 61.8187 117.598 61.072C117.057 60.3067 116.18 59.924 114.966 59.924Z" fill="black"/>
<path d="M105.462 69.892C105.126 71.1427 104.491 72.02 103.558 72.524C102.643 73.028 101.645 73.28 100.562 73.28C98.6208 73.28 97.1648 72.664 96.1941 71.432C95.2421 70.1813 94.7661 68.52 94.7661 66.448V65.888C94.7661 63.8347 95.2328 62.192 96.1661 60.96C97.1181 59.7093 98.4994 59.084 100.31 59.084C101.262 59.084 102.139 59.28 102.942 59.672C103.745 60.064 104.389 60.652 104.874 61.436C105.359 62.22 105.602 63.2187 105.602 64.432C105.602 64.9547 105.546 65.524 105.434 66.14H96.6701V67.008C96.6701 68.9307 96.9781 70.3213 97.5941 71.18C98.2288 72.02 99.2648 72.44 100.702 72.44C101.617 72.44 102.363 72.2253 102.942 71.796C103.521 71.3667 103.931 70.6107 104.174 69.528L105.462 69.892ZM100.31 59.924C99.0781 59.924 98.1634 60.344 97.5661 61.184C96.9688 62.0053 96.6701 63.3773 96.6701 65.3H103.782C103.801 65.076 103.81 64.88 103.81 64.712C103.829 64.5253 103.838 64.3573 103.838 64.208C103.838 62.6773 103.511 61.5853 102.858 60.932C102.205 60.26 101.355 59.924 100.31 59.924Z" fill="black"/>
<path d="M85.7477 52.9798V52.2798H89.5837V70.7878C89.5837 71.4411 89.6117 71.8238 89.6677 71.9358C89.7237 72.0478 89.901 72.1225 90.1997 72.1598L91.7397 72.2998V72.9998H85.7477V72.2998L87.2877 72.1598C87.5863 72.1225 87.7637 72.0478 87.8197 71.9358C87.8757 71.8238 87.9037 71.4411 87.9037 70.7878V54.4918C87.9037 53.8385 87.8757 53.4558 87.8197 53.3438C87.7637 53.2131 87.5863 53.1385 87.2877 53.1198L85.7477 52.9798Z" fill="black"/>
<path d="M77.6813 52.9798V52.2798H81.5173V70.7878C81.5173 71.4411 81.5453 71.8238 81.6013 71.9358C81.6573 72.0478 81.8346 72.1225 82.1333 72.1598L83.6733 72.2998V72.9998H77.6813V72.2998L79.2213 72.1598C79.5199 72.1225 79.6973 72.0478 79.7533 71.9358C79.8093 71.8238 79.8373 71.4411 79.8373 70.7878V54.4918C79.8373 53.8385 79.8093 53.4558 79.7533 53.3438C79.6973 53.2131 79.5199 53.1385 79.2213 53.1198L77.6813 52.9798Z" fill="black"/>
<path d="M74.7214 65.888V66.448C74.7214 68.52 74.208 70.1813 73.1814 71.432C72.1734 72.664 70.7454 73.28 68.8974 73.28C67.0307 73.28 65.5934 72.664 64.5854 71.432C63.5774 70.1813 63.0734 68.52 63.0734 66.448V65.888C63.0734 63.8347 63.5774 62.192 64.5854 60.96C65.5934 59.7093 67.0307 59.084 68.8974 59.084C70.764 59.084 72.2014 59.7093 73.2094 60.96C74.2174 62.192 74.7214 63.8347 74.7214 65.888ZM72.8174 65.328C72.8174 63.3867 72.4814 62.0053 71.8094 61.184C71.1374 60.344 70.1667 59.924 68.8974 59.924C67.6467 59.924 66.676 60.344 65.9854 61.184C65.3134 62.0053 64.9774 63.3867 64.9774 65.328V67.008C64.9774 68.9307 65.3134 70.3213 65.9854 71.18C66.676 72.02 67.6467 72.44 68.8974 72.44C70.1667 72.44 71.1374 72.02 71.8094 71.18C72.4814 70.3213 72.8174 68.9307 72.8174 67.008V65.328Z" fill="black"/>
<path d="M54.2439 73.2802C51.9853 73.2802 50.2866 72.5055 49.1479 70.9562C48.0093 69.3882 47.4399 67.2788 47.4399 64.6282V62.3042C47.4399 60.5682 47.7013 59.0562 48.2239 57.7682C48.7466 56.4615 49.5026 55.4535 50.4919 54.7442C51.4999 54.0348 52.7226 53.6802 54.1599 53.6802C55.5413 53.6802 56.6706 53.9602 57.5479 54.5202C58.4439 55.0615 59.0786 55.7708 59.4519 56.6482C59.8253 57.5255 59.9186 58.4682 59.7319 59.4762L57.9119 59.9242C58.1173 58.1882 57.8933 56.8535 57.2399 55.9202C56.6053 54.9868 55.5973 54.5202 54.2159 54.5202C52.6666 54.5202 51.4906 55.0148 50.6879 56.0042C49.8853 56.9935 49.4839 58.6268 49.4839 60.9042V66.0282C49.4839 68.2868 49.8946 69.9202 50.7159 70.9282C51.5373 71.9362 52.7413 72.4402 54.3279 72.4402C54.9439 72.4402 55.5413 72.3375 56.1199 72.1322C56.6986 71.9082 57.1933 71.5442 57.6039 71.0402C58.0146 70.5362 58.2666 69.8455 58.3599 68.9682L59.9279 69.3322C59.5173 70.7695 58.7893 71.7868 57.7439 72.3842C56.7173 72.9815 55.5506 73.2802 54.2439 73.2802Z" fill="black"/>
<path fill-rule="evenodd" clip-rule="evenodd" d="M113.2 52L113.2 -4.37114e-08L114.2 0L114.2 52L113.2 52Z" fill="black"/>
<path fill-rule="evenodd" clip-rule="evenodd" d="M107.2 83L43.2 83V82L107.2 82V83Z" fill="black"/>
</svg>
