<svg width="35" height="35" viewBox="0 0 35 35" fill="none" xmlns="http://www.w3.org/2000/svg">
<path d="M32.7819 34.1475L19.9969 21.3626C18.9761 22.2324 17.8022 22.9054 16.4751 23.3818C15.148 23.8582 13.8141 24.0964 12.4734 24.0964C9.20402 24.0964 6.43688 22.9646 4.17199 20.7011C1.9071 18.4362 0.774658 15.6698 0.774658 12.4017C0.774658 9.13371 1.90574 6.36589 4.16791 4.09828C6.43144 1.82931 9.19722 0.694824 12.4652 0.694824C15.7346 0.694824 18.5031 1.82727 20.7707 4.09216C23.0384 6.35705 24.1722 9.12487 24.1722 12.3956C24.1722 13.8139 23.921 15.1866 23.4188 16.5137C22.9152 17.8407 22.255 18.9759 21.4384 19.9192L34.2233 32.702L32.7819 34.1475ZM12.4734 22.0527C15.182 22.0527 17.4694 21.1203 19.3354 19.2556C21.2002 17.3909 22.1325 15.1035 22.1325 12.3936C22.1325 9.68496 21.2002 7.3983 19.3354 5.53357C17.4707 3.66885 15.1841 2.73649 12.4754 2.73649C9.76684 2.73649 7.47949 3.66885 5.61341 5.53357C3.74869 7.3983 2.81632 9.68496 2.81632 12.3936C2.81632 15.1022 3.74869 17.3889 5.61341 19.2536C7.47813 21.1183 9.7648 22.0527 12.4734 22.0527Z" fill="black"/>
</svg>
